<svg width="1440" height="503" viewBox="0 0 1440 503" fill="none" xmlns="http://www.w3.org/2000/svg">
<g clip-path="url(#clip0)">
<path d="M1440 0.717773H0V502.718H1440V0.717773Z" fill="#112875"/>
<path opacity="0.2" d="M1148.26 272.795C1156.22 248.895 1171.5 228.107 1191.93 213.376C1212.37 198.645 1236.92 190.718 1262.11 190.718L1550 190.718L1483.74 389.641C1475.78 413.54 1460.5 434.328 1440.07 449.06C1419.63 463.791 1395.08 471.718 1369.89 471.718H1082L1148.26 272.795Z" fill="url(#paint0_linear)"/>
<path opacity="0.2" d="M-115.136 49.8018C-107.176 25.9009 -91.8967 5.11105 -71.4624 -9.62151C-51.028 -24.3541 -26.4755 -32.2821 -1.284 -32.2822L493 -32.2822L375.136 321.634C367.176 345.535 351.897 366.324 331.462 381.057C311.028 395.79 286.475 403.718 261.284 403.718H-233L-115.136 49.8018Z" fill="url(#paint1_linear)"/>
<path opacity="0.2" d="M894.591 -51.5202C900.553 -78.1272 915.398 -101.91 936.682 -118.953C957.967 -135.996 984.42 -145.282 1011.69 -145.282H1422L1316.41 325.956C1310.45 352.563 1295.6 376.346 1274.32 393.389C1253.03 410.432 1226.58 419.718 1199.31 419.718H789L894.591 -51.5202Z" fill="url(#paint2_linear)"/>
<path opacity="0.1" d="M76.591 425.48C82.5529 398.873 97.3983 375.09 118.682 358.047C139.967 341.004 166.42 331.718 193.687 331.718H604L498.409 802.956C492.447 829.563 477.602 853.346 456.318 870.389C435.033 887.432 408.58 896.718 381.313 896.718H-29L76.591 425.48Z" fill="url(#paint3_linear)"/>
<path opacity="0.2" d="M1043.05 186.91C1049.49 160.88 1064.46 137.756 1085.57 121.227C1106.68 104.698 1132.72 95.7177 1159.54 95.7178H1304L1266.95 245.526C1260.51 271.556 1245.54 294.68 1224.43 311.208C1203.32 327.737 1177.28 336.718 1150.46 336.718H1006L1043.05 186.91Z" stroke="white" stroke-miterlimit="10"/>
<path opacity="0.2" d="M-78.952 174.91C-72.5148 148.88 -57.5449 125.756 -36.4309 109.227C-15.3168 92.6985 10.7248 83.7177 37.539 83.7178H182L144.952 233.526C138.515 259.556 123.545 282.68 102.431 299.208C81.3168 315.737 55.2752 324.718 28.461 324.718H-116L-78.952 174.91Z" stroke="white" stroke-miterlimit="10"/>
</g>
<defs>
<linearGradient id="paint0_linear" x1="1227.55" y1="429.849" x2="1274.16" y2="79.6303" gradientUnits="userSpaceOnUse">
<stop stop-color="#4C50B1" stop-opacity="0"/>
<stop offset="1" stop-color="#F0F7FF"/>
</linearGradient>
<linearGradient id="paint1_linear" x1="-7.21399" y1="338.754" x2="65.1253" y2="-204.642" gradientUnits="userSpaceOnUse">
<stop stop-color="#4C50B1" stop-opacity="0"/>
<stop offset="1" stop-color="#F0F7FF"/>
</linearGradient>
<linearGradient id="paint2_linear" x1="985.863" y1="335.533" x2="1122.32" y2="-354.119" gradientUnits="userSpaceOnUse">
<stop stop-color="#4C50B1" stop-opacity="0"/>
<stop offset="1" stop-color="#F0F7FF"/>
</linearGradient>
<linearGradient id="paint3_linear" x1="550.195" y1="614.218" x2="272.349" y2="142.172" gradientUnits="userSpaceOnUse">
<stop stop-color="#4C50B1" stop-opacity="0"/>
<stop offset="1" stop-color="#F0F7FF"/>
</linearGradient>
<clipPath id="clip0">
<rect width="1440" height="502" fill="white" transform="translate(0 0.717773)"/>
</clipPath>
</defs>
</svg>
