<svg width="64" height="62" viewBox="0 0 64 62" fill="none" xmlns="http://www.w3.org/2000/svg">
<rect width="64" height="62" fill="#E7EEFF"/>
<g clip-path="url(#clip0)">
<path d="M32 27.9144C35.003 27.9144 37.4375 25.48 37.4375 22.4769C37.4375 19.4739 35.003 17.0394 32 17.0394C28.997 17.0394 26.5625 19.4739 26.5625 22.4769C26.5625 25.48 28.997 27.9144 32 27.9144Z" fill="#112875"/>
<path d="M43 27.9143C44.8985 27.9143 46.4375 26.3753 46.4375 24.4768C46.4375 22.5783 44.8985 21.0393 43 21.0393C41.1015 21.0393 39.5625 22.5783 39.5625 24.4768C39.5625 26.3753 41.1015 27.9143 43 27.9143Z" fill="#112875"/>
<path d="M21 27.9143C22.8985 27.9143 24.4375 26.3753 24.4375 24.4768C24.4375 22.5783 22.8985 21.0393 21 21.0393C19.1015 21.0393 17.5625 22.5783 17.5625 24.4768C17.5625 26.3753 19.1015 27.9143 21 27.9143Z" fill="#112875"/>
<path d="M24.3869 31.0013C23.0338 29.8926 21.8083 30.0394 20.2438 30.0394C17.9038 30.0394 16 31.9319 16 34.2575V41.0831C16 42.0931 16.8244 42.9144 17.8381 42.9144C22.2148 42.9144 21.6875 42.9936 21.6875 42.7256C21.6875 37.889 21.1146 34.3421 24.3869 31.0013Z" fill="#112875"/>
<path d="M33.4881 30.0643C30.7553 29.8364 28.38 30.067 26.3312 31.7581C22.9026 34.5043 23.5624 38.202 23.5624 42.7256C23.5624 43.9224 24.5362 44.9143 25.7512 44.9143C38.9438 44.9143 39.4689 45.3399 40.2512 43.6075C40.5078 43.0216 40.4374 43.2078 40.4374 37.6031C40.4374 33.1515 36.5829 30.0643 33.4881 30.0643Z" fill="#112875"/>
<path d="M43.7562 30.0394C42.183 30.0394 40.9643 29.8941 39.613 31.0012C42.8608 34.3172 42.3124 37.6222 42.3124 42.7256C42.3124 42.9952 41.8747 42.9144 46.0962 42.9144C47.1462 42.9144 47.9999 42.0637 47.9999 41.0181V34.2575C47.9999 31.9319 46.0962 30.0394 43.7562 30.0394Z" fill="#112875"/>
</g>
<defs>
<clipPath id="clip0">
<rect width="32" height="32" fill="white" transform="translate(16 15)"/>
</clipPath>
</defs>
</svg>
