<svg width="32" height="28" viewBox="0 0 32 28" fill="none" xmlns="http://www.w3.org/2000/svg">
<path d="M16 10.9144C19.003 10.9144 21.4375 8.47998 21.4375 5.47693C21.4375 2.47388 19.003 0.0394287 16 0.0394287C12.997 0.0394287 10.5625 2.47388 10.5625 5.47693C10.5625 8.47998 12.997 10.9144 16 10.9144Z" fill="#112875"/>
<path d="M27 10.9143C28.8985 10.9143 30.4375 9.37529 30.4375 7.47681C30.4375 5.57833 28.8985 4.03931 27 4.03931C25.1015 4.03931 23.5625 5.57833 23.5625 7.47681C23.5625 9.37529 25.1015 10.9143 27 10.9143Z" fill="#112875"/>
<path d="M5 10.9143C6.89848 10.9143 8.4375 9.37529 8.4375 7.47681C8.4375 5.57833 6.89848 4.03931 5 4.03931C3.10152 4.03931 1.5625 5.57833 1.5625 7.47681C1.5625 9.37529 3.10152 10.9143 5 10.9143Z" fill="#112875"/>
<path d="M8.38688 14.0013C7.03375 12.8926 5.80831 13.0394 4.24375 13.0394C1.90375 13.0394 0 14.9319 0 17.2575V24.0831C0 25.0931 0.824375 25.9144 1.83812 25.9144C6.21475 25.9144 5.6875 25.9936 5.6875 25.7256C5.6875 20.889 5.11462 17.3421 8.38688 14.0013Z" fill="#112875"/>
<path d="M17.4881 13.0643C14.7553 12.8364 12.38 13.067 10.3312 14.7581C6.90263 17.5043 7.56244 21.202 7.56244 25.7256C7.56244 26.9224 8.53619 27.9143 9.75119 27.9143C22.9438 27.9143 23.4689 28.3399 24.2512 26.6075C24.5078 26.0216 24.4374 26.2078 24.4374 20.6031C24.4374 16.1515 20.5829 13.0643 17.4881 13.0643Z" fill="#112875"/>
<path d="M27.7562 13.0394C26.183 13.0394 24.9643 12.8941 23.613 14.0012C26.8608 17.3172 26.3124 20.6222 26.3124 25.7256C26.3124 25.9952 25.8747 25.9144 30.0962 25.9144C31.1462 25.9144 31.9999 25.0637 31.9999 24.0181V17.2575C31.9999 14.9319 30.0962 13.0394 27.7562 13.0394Z" fill="#112875"/>
</svg>
