<svg width="64" height="64" viewBox="0 0 64 64" fill="none" xmlns="http://www.w3.org/2000/svg">
<path d="M54.6666 50.6654H33.3334C32.5974 50.6654 32 51.2627 32 51.9987C32 52.7347 32.5974 53.3321 33.3334 53.3321H54.6668C55.4028 53.3321 56.0001 52.7347 56.0001 51.9987C56.0001 51.2627 55.4026 50.6654 54.6666 50.6654Z" fill="#D4D4D4"/>
<path d="M54.6666 55.9986H33.3334C32.5974 55.9986 32 56.596 32 57.332C32 58.068 32.5974 58.6654 33.3334 58.6654H54.6668C55.4028 58.6654 56.0001 58.068 56.0001 57.332C56 56.596 55.4026 55.9986 54.6666 55.9986Z" fill="#D4D4D4"/>
<path d="M9.3335 50.6654C7.12812 50.6654 5.3335 52.46 5.3335 54.6654C5.3335 56.8707 7.12812 58.6654 9.3335 58.6654C11.5389 58.6654 13.3335 56.8707 13.3335 54.6654C13.3335 52.46 11.5387 50.6654 9.3335 50.6654ZM9.3335 55.9986C8.5975 55.9986 8.00012 55.4012 8.00012 54.6652C8.00012 53.9292 8.5975 53.3319 9.3335 53.3319C10.0695 53.3319 10.6669 53.9292 10.6669 54.6652C10.6667 55.4014 10.0695 55.9986 9.3335 55.9986Z" fill="#D4D4D4"/>
<path d="M9.3335 34.6654C7.12812 34.6654 5.3335 36.46 5.3335 38.6654C5.3335 40.8707 7.12812 42.6654 9.3335 42.6654C11.5389 42.6654 13.3335 40.8707 13.3335 38.6654C13.3335 36.46 11.5387 34.6654 9.3335 34.6654ZM9.3335 39.9986C8.5975 39.9986 8.00012 39.4012 8.00012 38.6652C8.00012 37.9292 8.5975 37.3319 9.3335 37.3319C10.0695 37.3319 10.6669 37.9292 10.6669 38.6652C10.6669 39.4012 10.0695 39.9986 9.3335 39.9986Z" fill="#D4D4D4"/>
<path d="M54.6666 23.9986H33.3334C32.5974 23.9986 32 24.596 32 25.332C32 26.068 32.5974 26.6653 33.3334 26.6653H54.6668C55.4028 26.6653 56.0001 26.068 56.0001 25.332C56.0001 24.596 55.4026 23.9986 54.6666 23.9986Z" fill="#D4D4D4"/>
<path d="M64 25.332V19.9986C64 18.7186 63.6186 17.532 62.9894 16.5132C62.9708 16.4759 62.968 16.4332 62.9468 16.3986L54.7014 3.14537C53.4774 1.17737 51.36 0.00137329 49.04 0.00137329H14.968C12.6454 0.00137329 10.5306 1.17737 9.30663 3.14537L1.06138 16.3986C1.048 16.42 1.048 16.444 1.03475 16.468C0.389375 17.4946 0 18.7 0 19.9986V25.332C0 27.5186 1.07462 29.4494 2.70937 30.6654C1.07462 31.884 0 33.812 0 35.9986V41.332C0 43.5186 1.07462 45.4494 2.70937 46.6654C1.07462 47.884 0 49.812 0 51.9986V57.332C0 61.0066 2.992 63.9986 6.66663 63.9986H57.3332C61.0079 63.9986 63.9999 61.0066 63.9999 57.332V51.9986C63.9999 49.812 62.9253 47.8812 61.2905 46.6652C62.9254 45.4494 64 43.5186 64 41.332V35.9986C64 33.812 62.9254 31.8812 61.2906 30.6652C62.9254 29.4494 64 27.5214 64 25.332ZM11.5706 4.55337C12.304 3.372 13.5732 2.66537 14.9653 2.66537H49.0373C50.4292 2.66537 51.6986 3.372 52.4319 4.55337L57.9333 13.3934C57.7332 13.3747 57.5386 13.332 57.3332 13.332H6.66663C6.46125 13.332 6.26925 13.3746 6.06925 13.3934L11.5706 4.55337ZM61.3334 51.9986V57.332C61.3334 59.5374 59.5387 61.332 57.3334 61.332H6.66663C4.46125 61.332 2.66663 59.5374 2.66663 57.332V51.9986C2.66663 49.7933 4.46125 47.9986 6.66663 47.9986H57.3332C59.5386 47.9986 61.3334 49.7934 61.3334 51.9986ZM61.3334 35.9986V41.332C61.3334 43.5374 59.5387 45.332 57.3334 45.332H6.66663C4.46125 45.332 2.66663 43.5374 2.66663 41.332V35.9986C2.66663 33.7933 4.46125 31.9986 6.66663 31.9986H57.3332C59.5386 31.9986 61.3334 33.7934 61.3334 35.9986ZM61.3334 25.332C61.3334 27.5374 59.5387 29.332 57.3334 29.332H6.66663C4.46125 29.332 2.66663 27.5374 2.66663 25.332V19.9986C2.66663 17.7932 4.46125 15.9986 6.66663 15.9986H57.3332C59.5386 15.9986 61.3332 17.7932 61.3332 19.9986V25.332H61.3334Z" fill="#D4D4D4"/>
<path d="M54.6666 18.6653H33.3334C32.5974 18.6653 32 19.2627 32 19.9987C32 20.7347 32.5974 21.3321 33.3334 21.3321H54.6668C55.4028 21.3321 56.0001 20.7347 56.0001 19.9987C56.0001 19.2627 55.4026 18.6653 54.6666 18.6653Z" fill="#D4D4D4"/>
<path d="M54.6666 39.9986H33.3334C32.5974 39.9986 32 40.596 32 41.332C32 42.068 32.5974 42.6654 33.3334 42.6654H54.6668C55.4028 42.6654 56.0001 42.068 56.0001 41.332C56.0001 40.596 55.4026 39.9986 54.6666 39.9986Z" fill="#D4D4D4"/>
<path d="M54.6666 34.6654H33.3334C32.5974 34.6654 32 35.2627 32 35.9987C32 36.7347 32.5974 37.3321 33.3334 37.3321H54.6668C55.4028 37.3321 56.0001 36.7347 56.0001 35.9987C56.0001 35.2627 55.4026 34.6654 54.6666 34.6654Z" fill="#D4D4D4"/>
<path d="M9.3335 18.6653C7.12812 18.6653 5.3335 20.46 5.3335 22.6653C5.3335 24.8707 7.12812 26.6653 9.3335 26.6653C11.5389 26.6653 13.3335 24.8707 13.3335 22.6653C13.3335 20.46 11.5387 18.6653 9.3335 18.6653ZM9.3335 23.9986C8.5975 23.9986 8.00012 23.4012 8.00012 22.6652C8.00012 21.9292 8.5975 21.3318 9.3335 21.3318C10.0695 21.3318 10.6669 21.9292 10.6669 22.6652C10.6669 23.4012 10.0695 23.9986 9.3335 23.9986Z" fill="#D4D4D4"/>
</svg>
