<svg width="64" height="60" viewBox="0 0 64 60" fill="none" xmlns="http://www.w3.org/2000/svg">
<path d="M4.26667 51.3504H6.4V49.2171H4.26667C3.08827 49.2171 2.13333 48.2622 2.13333 47.0838V4.41709C2.13333 3.23869 3.08827 2.28375 4.26667 2.28375H51.2C52.3784 2.28375 53.3333 3.23869 53.3333 4.41709V6.55042H55.4667V4.41709C55.4667 2.06082 53.5563 0.150421 51.2 0.150421H4.26667C1.9104 0.150421 0 2.06082 0 4.41709V47.0838C0 49.44 1.9104 51.3504 4.26667 51.3504Z" fill="#D4D4D4"/>
<path d="M4.26685 4.41705H6.40018V6.55038H4.26685V4.41705Z" fill="#D4D4D4"/>
<path d="M8.5332 4.41705H10.6665V6.55038H8.5332V4.41705Z" fill="#D4D4D4"/>
<path d="M12.8 4.41705H14.9334V6.55038H12.8V4.41705Z" fill="#D4D4D4"/>
<path d="M8.5332 55.6171C8.5332 57.9733 10.4436 59.8837 12.7999 59.8837H59.7332C62.0895 59.8837 63.9999 57.9733 63.9999 55.6171V12.9504C63.9999 10.5941 62.0895 8.68375 59.7332 8.68375H12.7999C10.4436 8.68375 8.5332 10.5941 8.5332 12.9504V55.6171ZM10.6665 12.9504C10.6665 11.772 11.6215 10.8171 12.7999 10.8171H59.7332C60.9116 10.8171 61.8665 11.772 61.8665 12.9504V55.6171C61.8665 56.7954 60.9116 57.7504 59.7332 57.7504H12.7999C11.6215 57.7504 10.6665 56.7954 10.6665 55.6171V12.9504Z" fill="#D4D4D4"/>
<path d="M12.8 12.9504H14.9334V15.0838H12.8V12.9504Z" fill="#D4D4D4"/>
<path d="M17.0667 12.9504H19.2V15.0838H17.0667V12.9504Z" fill="#D4D4D4"/>
<path d="M21.3335 12.9504H23.4668V15.0838H21.3335V12.9504Z" fill="#D4D4D4"/>
<path d="M12.8 17.2171H59.7334V19.3504H12.8V17.2171Z" fill="#D4D4D4"/>
<path d="M12.8 22.5504H21.3334V24.6837H12.8V22.5504Z" fill="#D4D4D4"/>
<path d="M12.8 26.817H19.2V28.9504H12.8V26.817Z" fill="#D4D4D4"/>
<path d="M36.2667 31.0837C32.1427 31.0837 28.8 34.4264 28.8 38.5504C28.8 42.6744 32.1427 46.017 36.2667 46.017C40.3907 46.017 43.7334 42.6744 43.7334 38.5504C43.7286 34.4288 40.3883 31.0885 36.2667 31.0837ZM36.2667 43.8837C33.3214 43.8837 30.9334 41.4957 30.9334 38.5504C30.9334 35.605 33.3214 33.217 36.2667 33.217C39.2121 33.217 41.6001 35.605 41.6001 38.5504C41.5963 41.4944 39.2107 43.88 36.2667 43.8837Z" fill="#D4D4D4"/>
<path d="M53.3333 35.3504C53.3333 34.7611 52.8559 34.2837 52.2666 34.2837H49.4474C49.2215 33.5829 48.9399 32.9011 48.6037 32.2464L50.5973 30.2541C51.0133 29.8373 51.0133 29.1624 50.5973 28.7456L46.0714 24.2197C45.6546 23.8037 44.9797 23.8037 44.5629 24.2197L42.5706 26.2123C41.9149 25.8773 41.2335 25.5957 40.5333 25.3696V22.5504C40.5333 21.9611 40.0559 21.4837 39.4666 21.4837H33.0666C32.4773 21.4837 31.9999 21.9611 31.9999 22.5504V25.3696C31.2997 25.5957 30.6184 25.8773 29.9626 26.2123L27.9704 24.2197C27.5536 23.8037 26.8786 23.8037 26.4618 24.2197L21.936 28.7456C21.52 29.1624 21.52 29.8373 21.936 30.2541L23.9285 32.2464C23.8394 32.4211 23.7536 32.5963 23.6725 32.7733C23.4474 33.2651 23.2517 33.7691 23.0858 34.2837H20.2666C19.6773 34.2837 19.2 34.7611 19.2 35.3504V41.7504C19.2 42.3397 19.6773 42.8171 20.2666 42.8171H23.0858C23.3117 43.5179 23.5933 44.1997 23.9296 44.8544L21.936 46.8467C21.52 47.2635 21.52 47.9384 21.936 48.3552L26.4618 52.8811C26.8786 53.2971 27.5536 53.2971 27.9704 52.8811L29.9626 50.8885C30.6184 51.2235 31.2997 51.5051 31.9999 51.7312V54.5504C31.9999 55.1397 32.4773 55.6171 33.0666 55.6171H39.4666C40.0559 55.6171 40.5333 55.1397 40.5333 54.5504V51.7312C41.2335 51.5051 41.9149 51.2235 42.5706 50.8885L44.5629 52.8811C44.9797 53.2971 45.6546 53.2971 46.0714 52.8811L50.5973 48.3552C51.0133 47.9384 51.0133 47.2635 50.5973 46.8467L48.6037 44.8544C48.9399 44.1997 49.2215 43.5179 49.4474 42.8171H52.2666C52.8559 42.8171 53.3333 42.3397 53.3333 41.7504V35.3504ZM51.1999 40.6837H48.6463C48.1599 40.6837 47.7354 41.0131 47.6138 41.4837C47.3413 42.5424 46.9213 43.5584 46.3658 44.5003C46.1186 44.9189 46.1866 45.4523 46.5301 45.7963L48.3335 47.6008L45.317 50.6187L43.5125 48.8139C43.1682 48.4699 42.6349 48.4021 42.2159 48.6496C41.2741 49.2051 40.2586 49.6253 39.1999 49.8976C38.7293 50.0192 38.4 50.4437 38.4 50.9301V53.4837H34.1333V50.9301C34.1333 50.4437 33.8039 50.0192 33.3333 49.8976C32.2746 49.6253 31.2592 49.2051 30.3173 48.6496C29.8983 48.4021 29.365 48.4699 29.0208 48.8139L27.2162 50.6187L24.1997 47.6008L26.0032 45.7963C26.3466 45.4523 26.4146 44.9189 26.1674 44.5003C25.612 43.5584 25.192 42.5424 24.9194 41.4837C24.7978 41.0131 24.3733 40.6837 23.8869 40.6837H21.3333V36.4171H23.8869C24.3733 36.4171 24.7978 36.0877 24.9194 35.6171C25.0917 34.9456 25.324 34.2917 25.613 33.6621C25.7797 33.2971 25.9648 32.9411 26.1674 32.5955C26.4138 32.1765 26.3464 31.644 26.0032 31.3003L24.1997 29.4957L27.2162 26.4779L29.0208 28.2832C29.365 28.6272 29.8983 28.6944 30.3173 28.4467C31.2592 27.8917 32.2746 27.4709 33.3333 27.1987C33.8039 27.0773 34.1333 26.6523 34.1333 26.1667V23.6171H38.4V26.1707C38.4 26.6571 38.7293 27.0816 39.1999 27.2032C40.2586 27.4755 41.2741 27.8957 42.2159 28.4512C42.6349 28.6987 43.1682 28.6309 43.5125 28.2869L45.317 26.4821L48.3335 29.5L46.5301 31.3045C46.1866 31.6485 46.1186 32.1819 46.3658 32.6005C46.9213 33.5424 47.3413 34.5584 47.6138 35.6171C47.7354 36.0877 48.1599 36.4171 48.6463 36.4171H51.1999V40.6837Z" fill="#D4D4D4"/>
<path d="M53.3335 53.4838H59.7335V55.6171H53.3335V53.4838Z" fill="#D4D4D4"/>
</svg>
