<svg width="32" height="28" viewBox="0 0 32 28" fill="none" xmlns="http://www.w3.org/2000/svg">
<path d="M32 15.7437V16.4109V21.1268V26.3671C32 26.7976 31.6509 27.1467 31.2204 27.1467H0.779586C0.349099 27.1467 0 26.7976 0 26.3671V21.1268V16.4109V15.7437H14.033V16.5504C14.033 17.3359 14.6698 17.9727 15.4553 17.9727H16.5447C17.3302 17.9727 17.967 17.3359 17.967 16.5504V15.7437H32ZM0 14.1845V13.5738V9.91179V7.10793C0 6.67744 0.349099 6.32834 0.779586 6.32834H8.09351V5.09472C8.09351 2.75222 9.99258 0.853149 12.3351 0.853149H19.6648C22.0074 0.853149 23.9065 2.75222 23.9065 5.09488V6.3285H31.2204C31.6509 6.3285 32 6.6776 32 7.10808V9.91179V13.5738V14.1845H17.967V13.1722C17.967 12.3867 17.3302 11.7499 16.5447 11.7499H15.4553C14.6698 11.7499 14.033 12.3867 14.033 13.1722V14.1845H0ZM9.65268 6.32834H22.3473V5.09472C22.3473 3.61554 21.1439 2.41217 19.6649 2.41217H12.3351C10.8561 2.41217 9.65268 3.61554 9.65268 5.09472V6.32834Z" fill="#112875"/>
</svg>
