<svg width="227" height="75" viewBox="0 0 227 75" fill="none" xmlns="http://www.w3.org/2000/svg">
<g clip-path="url(#clip0)">
<path fill-rule="evenodd" clip-rule="evenodd" d="M88.9145 21.2923H84.8149C84.8149 21.2923 82.4496 21.8803 83.2754 19.2408L83.6254 17.6311C83.9823 15.7257 86.8981 16.1641 86.8981 16.1641H90.121L88.9145 21.2923ZM84.2813 11.3304C84.2813 11.3304 79.579 11.6238 78.6263 18.0717L75.6708 35.5058H80.9486L82.5991 25.8349H87.5869L86.0768 35.5058H91.3524L96.0048 11.3304H84.2813ZM219.476 21.2923H215.372C215.372 21.2923 213.004 21.8803 213.978 19.2408L214.18 17.6311C214.538 15.7257 217.459 16.1641 217.459 16.1641H220.681L219.476 21.2923ZM214.987 11.3304C214.987 11.3304 210.139 11.6238 209.336 18.0717L206.376 35.5058H211.502L213.166 25.8349H218.29L216.783 35.5058H222.06L226.563 11.3304H214.987ZM107.287 11.3304H101.133L96.3311 35.5058H102.483L107.287 11.3304ZM186.12 11.3304H179.379L174.73 35.5058H181.323L186.12 11.3304ZM195.977 35.5069H201.397L206.194 11.3304H200.778L198.426 24.0802L196.671 11.3304H191.102L186.301 35.5069H191.873L194.048 23.6373L195.977 35.5069ZM168.393 11.3304L166.629 19.8276H162.968L164.727 11.3304H158.571L153.775 35.5058H159.928L162.071 24.5152H165.734L163.59 35.5058H169.75L174.546 11.3304H168.393ZM122.163 17.6311L121.485 20.2671C120.803 22.9043 118.921 22.3198 118.921 22.3198H114.819L116.35 16.163H119.576C119.576 16.1641 122.518 15.7268 122.163 17.6311ZM123.698 11.3304H112.126L106.881 35.5058H112.162L114.218 26.8635L115.388 27.0074L117.438 35.5058H123.004L121.098 27.0074C121.098 27.0074 125.211 26.8635 126.001 20.8551L126.683 18.0717C128.375 11.6238 123.698 11.3304 123.698 11.3304ZM145.309 25.9822L144.418 30.6698H140.17L142.876 16.1641H147.268L146.215 21.1473H151.93L153.181 14.7005C153.688 12.7951 152.42 11.1831 150.519 11.1831H141.287C139.381 11.1831 137.566 12.7951 137.206 14.7005L133.673 31.9906C133.317 33.8949 134.574 35.5058 136.481 35.5058H145.568C147.471 35.5058 149.435 33.8949 149.792 31.9906L151.027 25.9811H145.309V25.9822ZM216.068 47.4116C215.395 47.4116 214.836 46.2041 215.175 45.5991C217.183 43.6632 219.197 42.0897 221.879 41.1256C223.555 40.8821 224.456 42.7014 224.233 44.2669C223.555 50.9177 223.892 57.2037 223.332 63.7355C223.332 64.337 223.002 65.9128 222.104 65.309C220.992 64.0969 220.091 62.5279 219.197 60.9567C220.091 60.9567 220.651 62.1643 221.542 62.1643C221.879 62.1643 222.104 61.7995 222.104 61.5582C222.104 55.637 221.879 49.9514 222.104 44.0257C222.104 43.6632 221.542 43.0582 220.992 43.3041C219.536 44.6294 218.412 45.598 217.184 47.1715C216.96 47.1726 216.293 47.4116 216.068 47.4116ZM217.744 56.4809C217.518 57.2048 217.631 58.1734 217.073 58.5359C216.516 58.7772 215.956 58.2946 215.956 57.9298C215.956 57.0825 217.073 55.6359 218.078 56.2351L217.744 56.4809ZM219.536 54.3037C218.078 53.3329 216.959 55.6359 215.733 56.4809C215.514 56.4809 215.176 56.4809 215.176 56.2351C214.837 55.2722 215.514 54.6662 215.733 54.0624C216.293 53.095 217.184 53.095 218.078 52.4912C218.64 51.7605 218.414 50.9177 218.64 49.9514C218.64 49.9514 218.527 49.5912 218.414 49.3453C217.744 48.7438 216.07 48.3802 216.07 48.9874C215.514 52.1264 214.28 55.2734 214.616 58.4147C214.616 58.7772 214.837 59.3821 215.176 59.6222C216.07 59.987 216.959 59.381 217.745 59.6222C218.416 59.987 219.537 59.6222 219.869 59.0185C220.092 58.0533 220.092 57.2037 220.092 56.2351C219.868 55.6359 219.868 54.6673 219.536 54.3037ZM76.005 50.9188L76.3448 51.1624C76.005 51.7639 75.6719 52.4923 75.4465 53.0984H74.5505C73.6544 51.7639 72.2055 49.5912 73.4358 48.7438C74.5505 47.7764 74.8869 49.5912 75.1078 50.5563C75.4465 50.9188 75.6708 50.9188 76.005 50.9188ZM82.7124 49.5912C80.5906 49.9514 81.4787 47.1726 81.8175 45.8427C82.0395 44.6306 84.3901 44.2692 84.9497 45.8427C85.2827 47.4116 84.1635 49.3476 82.7124 49.5912ZM84.9497 43.3029C83.8316 42.7014 82.9344 44.2703 81.8175 44.0268C80.9203 43.3029 81.8175 42.4556 81.8175 41.4893C81.8175 40.523 81.4787 39.9158 80.9203 39.312H80.031C80.031 41.1268 80.5895 43.0605 80.031 44.8741C79.8056 46.8078 77.1219 47.1726 76.8999 49.5912C78.0146 49.3476 78.9107 48.3813 79.8056 47.4116C80.031 47.4116 80.3652 47.4116 80.3652 47.7764C80.5895 49.3476 80.9191 51.1613 79.8056 51.7639C78.5753 52.4923 76.8999 52.7325 76.8999 54.6673C77.1219 54.6673 77.4561 54.9086 77.4561 54.9086C78.3522 54.6673 79.1327 54.3048 79.8056 53.3329C80.031 53.0961 80.5895 53.6999 80.5895 54.0635C80.3652 57.812 79.8056 61.1991 80.5895 64.9442C80.9203 65.309 81.259 65.9128 81.259 65.6726C82.0384 61.1991 79.8056 56.8423 81.8163 53.0961C82.7112 51.1624 84.9486 49.9525 86.3974 48.3813C87.6288 46.8078 86.3986 44.2703 84.9497 43.3029ZM98.3611 60.3484C98.9207 60.1071 99.478 60.3484 99.8145 59.6245C99.8145 59.987 100.037 59.987 100.374 59.987V60.9544C99.478 61.5582 98.3611 61.5582 97.4673 62.5279C96.5758 63.1317 96.3469 61.7995 96.3469 61.198C96.3458 60.5919 97.4673 60.5919 98.3611 60.3484ZM96.9077 52.7336C97.132 52.4923 97.4661 51.7628 98.0258 52.1298C98.3599 52.1298 98.3599 52.4923 98.3599 52.7336C98.0258 53.0961 98.0258 53.0961 98.0258 53.3329C98.0258 53.6999 97.6904 54.0635 97.4662 54.0635C97.132 53.6999 96.5758 53.3329 96.9077 52.7336ZM102.387 50.5563C102.387 47.7753 103.501 45.2378 103.837 42.4567C102.387 41.1268 100.597 41.4893 99.1404 42.4567C96.015 44.8753 96.015 48.9862 94.002 52.4923C93.6667 52.7336 93.4469 52.4923 93.4469 52.1298C93.1048 50.5563 93.5534 49.1052 94.002 47.4128C94.2252 46.2052 93.6667 45.2378 92.7695 44.8753C92.5463 50.92 93.4469 56.8423 93.1048 62.7681C93.4469 62.7681 93.6667 62.7681 93.6667 63.1328C94.8947 59.3821 92.5463 55.2734 94.8947 51.7628H96.015C97.1308 52.4934 96.015 53.701 96.3458 54.6673C96.3458 54.9086 96.5746 54.9086 96.9065 54.9086C97.1308 54.6673 97.1308 54.6673 97.465 54.6673C97.6893 54.6673 98.0246 54.9086 97.6893 55.2734C97.1308 55.8749 96.9065 56.2363 96.5746 56.8423C96.3458 57.2048 96.015 56.8423 96.015 56.4798C95.6763 56.8423 95.6763 57.4484 95.4554 58.0533H96.015C97.1308 57.2059 97.4662 55.876 98.3599 54.6684H98.9207C99.8122 55.876 98.5854 57.2059 98.0246 58.0533C98.5842 58.0533 98.5842 57.812 98.9207 57.4495C99.4769 56.8434 99.8122 58.4169 100.372 57.812C100.372 57.4495 99.8122 56.8434 99.8122 56.4798C100.035 55.637 99.8122 54.3048 100.597 53.701C100.372 53.701 100.372 53.334 100.372 53.0972C99.8122 53.0972 98.9207 53.0972 98.5854 52.4934C98.5854 51.1613 98.5854 50.195 98.3599 49.3499C97.6905 47.7764 97.4662 50.5575 96.3469 51.1624C95.6763 51.5271 94.8958 51.1624 95.1212 50.195C95.6763 48.9874 96.3469 47.7764 96.9077 46.4487C98.0258 44.8753 99.1404 43.6677 100.933 43.0616C101.492 42.7014 102.048 43.0616 102.386 43.6677C102.718 45.845 102.386 47.7764 102.048 49.9537C101.822 50.5575 100.596 49.9537 100.372 50.195C100.372 50.5575 99.8122 50.9211 100.035 51.5272C100.597 52.1309 101.266 51.5271 101.492 51.1624C101.823 50.9211 102.048 51.1624 102.048 51.5272C102.386 55.8772 102.386 60.5942 102.386 64.9465C102.718 65.9139 103.836 66.5177 103.836 65.6749C104.399 60.5919 102.719 55.6359 102.387 50.5563ZM117.14 52.7336C117.476 53.701 117.695 54.6673 117.476 55.2734C116.917 56.2363 116.248 56.8423 115.463 57.4484C115.129 57.4484 114.906 57.4484 114.906 57.2048C115.129 57.2048 115.017 56.8423 115.129 56.4809C115.686 55.2734 116.023 54.3037 116.023 53.0961C115.686 52.4923 117.14 52.1275 117.14 52.7336ZM121.276 52.4923C121.276 51.1624 120.941 50.1961 121.501 48.9874C122.393 47.7775 121.276 46.4453 121.276 44.8741C121.276 44.0268 120.607 43.6643 120.384 43.3052C116.917 42.7014 115.687 47.4116 114.235 49.9514C114.006 50.9188 113.677 51.5249 113.458 52.4912C113.117 54.3037 113.117 56.2351 112.223 57.8097C111.665 56.234 112 54.3025 112 52.7325C112.223 50.5552 112.223 48.7438 112.785 46.4442C112.554 46.4442 112.223 45.2366 112.223 46.2029C111.33 49.9514 111.665 53.3317 111.107 57.2037C111.107 58.0533 111.108 59.381 112.001 60.3495C112.786 57.8097 113.459 54.9063 114.007 52.1253C114.007 51.7628 114.236 51.5238 114.574 51.5238C115.131 51.5238 115.689 51.7628 115.689 52.1253C115.689 53.0938 115.689 54.3025 115.465 55.2711C114.908 56.234 114.574 56.84 114.007 57.8086C113.678 58.4124 114.236 58.776 114.236 59.0162H114.907C115.687 58.051 116.25 56.8389 117.142 56.8389C117.697 56.4787 117.697 57.8075 117.478 58.4124C116.587 59.9859 115.131 59.9859 114.007 60.9544C113.678 61.1935 114.008 61.556 114.236 61.556C115.464 61.556 116.587 61.1935 117.697 60.5885C117.697 60.3472 117.142 59.6211 117.142 59.3787C117.478 58.7749 118.036 58.7749 118.595 59.3787C118.372 58.051 118.036 56.8389 118.372 55.6347C118.595 55.27 118.93 54.6639 118.93 54.059C118.372 54.059 117.697 53.6965 117.697 53.3283C117.697 52.123 118.372 50.9143 117.697 49.5866H116.918C116.249 50.5518 116.024 51.5204 115.13 51.5204C114.907 51.5204 114.235 51.1579 114.573 50.5518C115.687 48.7393 116.249 46.4408 118.036 45.2332C118.595 44.8707 119.489 45.2332 120.049 45.8393C120.943 47.4082 120.943 48.7404 120.608 50.1916C120.385 50.9154 119.155 50.5518 119.489 51.5215C119.828 51.7605 120.049 52.4889 120.385 52.7291C120.608 56.4775 121.277 59.9836 121.277 63.3673C121.277 63.7321 121.843 63.7321 121.843 63.7321C122.058 59.9881 120.607 56.2351 121.276 52.4923ZM138.046 42.4556C137.036 42.4556 137.147 44.2681 136.595 44.8741C135.699 43.3029 137.488 42.4556 137.488 40.8832C137.709 40.8832 138.046 40.8832 138.046 40.523C138.601 41.4904 139.833 41.1268 139.833 41.7328C140.05 43.0605 139.833 44.2681 139.163 45.6003C138.601 47.7753 137.709 49.9525 136.594 52.1275C136.25 53.0961 136.034 54.6673 134.91 54.6673C134.246 54.3048 134.023 53.3329 134.246 52.7336C135.138 50.9188 136.034 49.3465 136.594 47.4128C136.25 48.9885 135.697 50.5563 134.91 52.1275C134.91 52.4923 134.91 53.0961 135.138 53.0961C137.487 50.5563 138.941 46.4453 138.941 42.6991C138.942 42.4556 138.378 42.4556 138.046 42.4556ZM144.192 42.4556C144.192 42.8181 143.856 43.3029 143.522 43.6632C142.964 44.2669 141.509 44.6306 141.843 45.2366C142.068 46.8101 144.192 47.7741 145.87 47.7741C146.43 47.7741 146.764 48.7427 146.43 49.3453H145.87C145.306 48.7438 144.749 48.3802 143.857 48.3802C142.966 48.0177 142.406 46.809 141.51 46.2029C140.953 45.8427 139.837 46.4442 140.052 45.8427C140.052 44.8741 141.51 44.6306 142.07 43.6632C142.406 43.0594 141.844 42.698 141.51 42.4556C141.289 41.4881 142.07 40.8821 142.07 39.9158C142.07 39.5578 142.406 39.312 142.74 39.5578C143.3 40.1594 143.523 41.1268 144.194 41.7328V42.4556H144.192ZM133.461 43.6643C133.461 44.6317 133.123 44.8741 132.563 45.6003C132.233 45.8438 131.669 45.8438 131.34 45.8438C130.78 45.6003 131.11 44.8753 131.11 44.6317C131.34 43.0605 132.786 41.4904 134.247 42.7003C134.024 43.0605 133.461 43.3029 133.461 43.6643ZM132.787 49.3453C132.234 49.5912 131.67 48.9874 131.67 48.7438C132.014 48.0177 132.234 47.4116 132.787 47.1703C133.124 47.1703 133.462 47.1703 133.462 47.4116C133.461 48.0188 133.461 48.9874 132.787 49.3453ZM133.686 45.2378C134.247 44.0279 135.478 43.0605 135.139 41.7328C135.139 40.8832 133.686 41.4893 133.124 41.4893C132.234 42.0908 131.448 42.8192 130.219 43.6643C129.323 44.2681 127.872 44.6317 128.429 46.2041C128.773 46.8101 129.887 46.4453 130.219 45.8438C130.781 46.2041 131.341 46.4453 131.67 47.1715V47.7753C131.341 48.3813 130.553 48.3813 130.781 49.3465C131.341 49.9525 131.67 50.5563 131.341 51.1613C131.341 53.0972 131.67 54.6684 131.67 56.4821C131.341 59.0196 131.111 61.1969 131.111 63.7366C131.111 64.0969 131.341 64.7018 132.014 64.9465C132.564 60.3506 131.111 55.6359 132.234 50.9188C132.564 50.195 133.686 49.9514 134.247 49.3453C134.582 48.9874 134.024 48.3802 134.582 48.0177C134.024 47.1715 133.461 46.2041 133.686 45.2378ZM139.164 52.7336C138.943 52.7336 138.6 52.4923 138.943 52.1275C139.496 51.7628 139.496 50.5563 140.394 50.5563C140.613 50.5563 140.613 50.9188 140.951 51.1601C140.394 51.7616 140.051 52.7336 139.164 52.7336ZM139.496 59.6234C138.6 59.6234 138.377 58.0522 139.496 57.4484H140.051C140.394 57.4484 140.281 57.8109 140.394 58.0522C140.613 59.0196 140.051 59.9881 139.496 59.6234ZM144.416 57.2048C143.856 55.8772 142.068 56.4809 141.511 55.8772C140.051 54.6673 141.511 52.7336 142.068 51.1601C142.068 50.9188 141.398 51.1601 141.286 50.9188C140.613 49.5912 139.837 48.7438 138.943 49.9514C138.943 49.9514 139.496 50.195 139.496 50.5552C139.837 51.5238 138.6 52.1264 138.047 52.7325C137.711 53.095 138.047 54.0624 138.377 54.3037C138.943 54.6662 139.164 53.3329 139.837 53.0961C140.051 53.0961 140.394 53.0961 140.394 53.3329C140.613 54.6673 140.951 55.8772 139.837 56.8423C139.164 57.2048 138.6 57.4484 137.711 57.4484C137.151 57.8109 137.487 58.4158 137.487 58.7783C138.377 60.3518 139.837 60.9578 140.394 62.529H140.951C140.951 60.9578 141.286 59.3832 140.951 57.4495C140.951 56.8434 141.511 56.2374 142.405 56.4821C143.299 57.2059 142.962 58.4158 143.856 59.0196H144.416C145.306 58.4147 144.416 57.8109 144.416 57.2048ZM164.762 46.4476C164.537 46.3264 164.537 46.2041 164.311 46.2041C163.975 46.2041 163.532 45.8438 163.306 45.8438C162.972 44.0268 164.421 42.459 165.876 43.6665C166.438 44.634 166.772 45.8438 165.539 46.8078C165.322 46.8078 164.989 46.8078 164.762 46.4476ZM159.056 50.5563C158.72 51.4037 159.618 51.7616 158.833 52.0075C157.941 52.3677 158.276 51.5249 157.718 51.1601C158.61 50.195 158.276 48.7438 159.167 48.0188C159.508 48.0188 160.068 48.745 159.508 49.3465C159.167 49.5912 159.056 50.3128 159.056 50.5563ZM158.051 52.7336C157.717 53.3329 158.051 54.9086 156.937 54.3048C156.488 53.8222 156.377 52.6147 157.16 51.7628C157.494 51.7616 158.165 52.4923 158.051 52.7336ZM168.67 58.8995C168.564 58.6582 168.452 57.8109 168.452 57.4484C168.452 57.2048 167.89 57.2048 167.89 57.2048C167.664 58.4147 168.337 61.5594 166.773 60.3484C164.87 58.8995 165.766 55.2734 166.33 52.7325C166.33 52.4912 165.54 52.4912 165.323 52.4912C164.986 52.7325 163.869 53.3317 164.201 52.7325C164.201 51.159 165.54 50.195 166.439 48.984V48.0166C166.439 47.773 166.218 47.773 165.877 47.773C164.201 49.3442 162.746 50.1938 160.624 51.5238C160.624 51.5238 160.624 52.1275 160.408 52.1275H159.841C159.509 51.7605 159.509 51.5238 159.509 51.159C160.069 49.9514 160.624 48.984 160.408 47.7741C160.069 47.1703 159.841 45.8427 158.947 46.4442C158.054 47.7741 158.397 49.9514 156.939 50.9177C156.602 50.9177 156.602 50.5552 156.602 50.5552C157.051 48.984 156.602 49.1041 157.162 47.8953C157.162 47.5328 157.383 47.2893 157.271 46.5654L157.162 46.0828C157.051 45.4768 157.271 45.598 157.271 45.3544C157.607 44.9942 157.384 44.8719 157.719 44.6283C158.611 44.0245 159.168 43.0571 160.069 42.4533C159.841 42.4533 159.841 42.0885 159.841 41.7294C159.168 41.7294 158.947 41.1234 158.611 41.1234C157.496 41.7294 156.602 43.3007 156.266 44.8719C156.043 48.3791 156.266 51.5226 155.709 54.9052C155.481 55.8726 153.696 55.8726 152.804 56.4764C152.579 56.4764 152.804 57.8086 153.696 57.8086L154.592 56.84C154.924 56.84 155.481 56.84 155.481 57.2025C155.481 59.0173 154.032 60.5897 154.255 62.5234C154.255 62.5234 155.149 62.3999 155.149 62.0385C155.37 59.8658 155.817 57.6863 156.379 55.509C156.713 55.1488 156.602 54.9052 156.939 54.6639C157.162 54.6639 157.162 54.9052 157.496 55.27C157.719 55.8715 156.043 56.3586 157.271 56.7188C157.496 56.8378 157.719 55.8715 158.054 55.6325C158.397 55.6325 158.611 55.6325 158.611 55.8715C158.947 57.8075 157.719 59.0151 158.054 60.9533C158.397 61.5548 158.611 62.1609 158.611 62.7635H159.168L158.947 62.5222C158.947 62.162 159.509 61.9207 159.509 61.9207C158.277 59.3787 159.168 56.8389 159.168 54.4204C159.168 53.4529 160.292 52.8514 160.963 52.4889C161.74 52.4889 162.634 51.5215 163.535 51.2768C163.869 51.2768 163.535 51.7594 163.535 52.1264C162.973 53.6976 162.746 55.27 162.082 56.8389C161.525 58.7749 161.07 60.4696 161.295 62.3988C161.295 62.3988 161.97 62.3988 161.97 62.0385C161.74 59.8658 162.864 58.0499 163.198 56.115C163.423 55.509 163.871 54.3003 164.426 54.0601C164.764 54.0601 164.988 54.0601 164.988 54.3014C164.988 56.4764 164.764 58.0499 164.988 60.3461C165.324 61.1935 166.218 61.556 166.996 61.7972C167.332 61.7972 167.221 62.0385 167.664 61.9207C168.224 62.0385 168.224 61.7972 168.452 61.7972C169.674 61.1957 169.347 59.7423 168.67 58.8995ZM175.155 52.1287C174.929 52.1287 174.595 52.1287 174.595 51.7639C174.038 49.3476 175.491 47.7764 177.168 46.4476C177.168 47.7775 176.944 48.9851 176.053 49.5889C176.276 49.9514 176.608 50.1927 176.608 50.1927C179.517 47.7764 181.856 44.6328 185.325 44.6328C187.34 44.2703 190.805 47.1726 189.128 48.9851C188.457 49.5889 186.781 49.3476 185.55 49.3476C185.889 48.3802 187.004 48.02 187.672 47.4116V46.8078C186.446 45.6003 184.993 45.2366 183.54 45.8427C181.856 46.8078 180.074 48.3802 178.393 49.3476C177.168 49.9514 177.168 51.7639 176.053 52.4912C175.716 52.4923 175.491 52.1287 175.155 52.1287ZM182.084 43.6665C181.079 43.3041 180.409 41.4893 181.527 41.1268C182.084 40.8855 182.423 41.7328 182.982 42.459C183.321 43.0628 182.982 44.0268 182.084 43.6665ZM182.423 50.5563C182.423 51.5249 181.859 52.4923 181.303 52.1298C180.075 52.1298 179.518 53.334 178.394 53.0972C178.62 53.0972 178.62 52.7347 178.62 52.4934H179.182C179.852 51.526 180.41 50.92 180.967 49.9537C180.967 49.5934 180.967 49.3499 180.633 49.3499C180.967 49.3499 180.967 48.9874 180.967 48.7461C181.859 48.9851 182.423 49.3476 182.423 50.5563ZM184.208 50.9188C183.651 50.4362 183.321 49.3476 183.874 49.3476C184.431 48.9851 184.768 49.9514 185.325 50.5552C184.993 50.5552 184.993 50.9177 184.993 51.1613C184.768 51.1624 184.432 51.1624 184.208 50.9188ZM183.54 55.2734C183.321 56.2385 183.54 57.2048 182.982 58.0522C182.423 58.7783 181.303 59.0207 181.527 59.6256C181.527 60.5931 182.764 59.3821 183.54 59.3821C183.874 59.3821 184.208 59.6256 184.208 59.9881C184.431 60.9556 184.208 61.8006 183.321 62.1654C181.859 62.1654 180.075 62.5279 178.62 62.1654C178.959 61.5594 177.721 60.5919 178.62 60.3484C179.518 60.3484 180.407 59.6245 180.407 58.7772C180.633 58.7772 180.967 58.7772 180.967 58.4147C181.303 57.4472 182.084 56.4787 181.303 55.8772C180.967 55.8772 180.407 55.6359 180.075 55.6359C180.967 54.9075 181.859 54.6673 182.764 54.0624C183.321 54.0635 183.874 54.3037 183.54 55.2734ZM196.954 53.0961C196.616 53.3329 196.286 53.6999 196.058 54.0635C196.058 53.0961 196.616 52.7336 197.175 52.1275C198.074 50.1961 198.41 47.7775 199.857 46.2041C200.08 45.8438 200.976 45.8438 201.54 46.2041C202.432 46.8101 202.432 47.7775 202.097 48.7438C201.874 48.9874 201.54 49.3453 200.976 49.3453C200.08 49.9514 199.857 51.1624 198.967 52.1264C198.41 52.4923 197.512 52.4923 196.954 53.0961ZM200.752 60.1071C201.875 60.1071 202.765 58.7772 203.546 57.8109V57.2048C203.885 57.2048 204.217 56.4809 204.779 56.8423C205.564 57.4484 205.564 58.4158 206.232 59.0196C206.458 59.9881 206.232 61.1969 205.004 61.1969C204.217 60.9578 204.779 59.6234 203.885 59.3821C203.546 59.3821 203.44 59.6234 203.217 59.6234C201.763 60.5919 200.863 62.7669 199.082 62.1654C199.082 62.1654 198.633 60.9578 198.969 60.5919C199.185 59.9881 199.521 59.6234 199.521 59.0185C200.417 57.8109 200.977 56.4809 201.875 55.6359C202.765 54.3037 202.765 51.7616 204.44 51.7616C204.779 51.7616 205.004 52.2488 205.004 52.6135C204.327 53.215 203.546 52.6135 203.217 53.5809C202.88 54.187 204.108 53.9412 203.774 54.5484C202.65 56.4821 201.202 57.6897 200.306 59.6234C199.975 60.2294 200.417 60.1071 200.752 60.1071ZM205.898 48.9851C205.564 48.9851 205.341 48.9851 205.341 48.7438C205.341 47.7764 205.341 46.8078 205.898 45.8427C206.232 46.4465 207.01 46.4465 207.345 47.1726C207.686 48.0177 207.01 48.9851 206.458 49.3476C206.458 49.3476 206.232 48.9851 205.898 48.9851Z" fill="#979797"/>
<path fill-rule="evenodd" clip-rule="evenodd" d="M2.18407 27.7868C3.88555 27.6803 5.27778 28.8868 5.58591 30.4648V51.3879C5.54852 57.317 10.3222 62.0964 16.2706 62.0918C22.091 62.0964 26.8602 57.317 26.9542 51.3879V36.3022C26.8432 24.8064 36.1436 15.4901 47.5986 15.3814C55.6891 15.3236 62.3104 9.79999 64.1127 2.24072C59.9565 5.40694 54.6673 7.40749 49.0554 7.35198C47.9418 7.40749 48.0596 7.47206 47.1115 7.35198H47.3539C31.2713 7.35198 18.534 20.2083 18.4558 36.3022V50.4148V50.1735C18.4479 50.2845 18.4479 50.289 18.4558 50.4148C18.4479 51.8489 17.1927 53.1075 15.5433 53.0916C14.0979 53.1075 12.8393 51.8478 12.871 50.4148C12.8404 50.2913 12.8404 50.2845 12.871 50.1735V30.7072C12.8404 28.7429 11.3406 27.2351 9.47259 27.3008C9.63119 26.1873 10.5726 25.3501 11.6601 25.3535C12.0667 25.3501 12.4066 25.434 12.632 25.5982C13.1033 25.707 13.6312 25.7885 14.0888 25.8406C17.1327 25.7885 19.5252 23.3915 19.4312 20.487C19.5252 20.3725 19.5229 20.3102 19.4312 20.2457C18.2972 21.7942 16.359 22.8228 14.0888 22.9214C13.8056 22.7197 13.2562 22.7243 12.8722 22.6778C10.3652 22.7243 8.34657 24.7429 8.25935 27.3008H0V27.7868H2.43102H2.18407Z" fill="#979797"/>
<path fill-rule="evenodd" clip-rule="evenodd" d="M47.5984 25.1111C41.4132 25.0545 36.3892 30.0898 36.4265 36.3022V36.0609V53.5787C36.3824 62.2119 29.5073 69.1549 20.8843 69.1504C14.9042 69.1549 9.66268 65.6749 7.04248 60.6339C9.39647 62.8837 12.6307 64.3416 16.2704 64.2827C23.3289 64.3427 29.1063 58.554 29.1425 51.3879V36.3022C29.1154 26.0649 37.3996 17.7693 47.5984 17.8112H47.1112C52.5929 17.7682 57.5479 15.5264 61.1967 11.9705C60.6223 19.2613 54.5233 25.0545 47.1112 25.1111H47.5984Z" fill="#979797"/>
<path d="M44.9263 41.4124C44.8447 39.7732 46.0818 38.5317 47.5963 38.4943C49.1437 38.5317 50.3808 39.7732 50.2664 41.4124C50.3808 41.6401 50.3219 41.9607 50.2664 42.1431C50.1157 42.7095 49.5652 43.1898 48.813 43.1184C48.1684 43.1898 47.5714 42.5894 47.5963 41.9018C47.5714 41.6673 47.6054 41.4928 47.5963 41.4124V41.1711C47.4287 41.8123 47.3154 42.39 47.3528 42.8726C47.3154 45.6718 49.4881 47.8468 52.2114 47.738C54.1089 47.8468 55.7843 46.7004 56.5841 45.0657C57.2479 43.8219 57.6523 42.3311 57.5526 40.6851C57.6512 35.507 53.4043 31.2488 48.0857 31.1956C42.9099 31.2488 38.6607 35.507 38.612 40.6851V53.58C38.612 63.4173 30.7072 71.3357 20.8834 71.3425C19.5807 71.3357 18.2372 71.1782 16.999 70.8554H16.7566C19.2284 72.0278 22.1137 72.7223 25.2584 72.8004C36.0031 72.7234 44.7926 63.9169 44.6839 53.094V41.1711L44.9263 41.4124Z" fill="#979797"/>
</g>
<defs>
<clipPath id="clip0">
<rect width="226.563" height="73.6329" fill="white" transform="translate(0 0.703613)"/>
</clipPath>
</defs>
</svg>
