<svg width="144" height="143" viewBox="0 0 144 143" fill="none" xmlns="http://www.w3.org/2000/svg">
<path d="M28.1887 104.209C28.1887 99.6526 30.5546 97.7249 34.8045 97.7249C37.3456 97.7249 38.901 98.4697 39.8868 99.4993L37.9809 101.427C37.3456 100.814 36.5132 100.266 34.7826 100.266C32.0443 100.266 30.9708 101.624 30.9708 104.231C30.9708 106.969 31.7157 108.328 34.7607 108.328C37.2142 108.328 37.9152 107.517 37.9152 105.743V105.48H34.4102V103.18H40.6535V105.239C40.6535 108.81 39.2296 110.693 34.6073 110.693C29.5907 110.693 28.1887 108.393 28.1887 104.209Z" fill="#979797"/>
<path d="M41.7488 105.699C41.7488 102.478 43.1508 100.682 46.7654 100.682C50.3799 100.682 51.7819 102.457 51.7819 105.699C51.7819 108.941 50.3799 110.715 46.7654 110.715C43.1727 110.693 41.7488 108.919 41.7488 105.699ZM49.1312 105.764C49.1312 104.143 48.6274 103.114 46.7873 103.114C44.9252 103.114 44.4433 104.143 44.4433 105.764C44.4433 107.386 44.9252 108.437 46.7873 108.437C48.6055 108.437 49.1312 107.386 49.1312 105.764Z" fill="#979797"/>
<path d="M56.5576 97.9441H65.7145V100.441H59.3397V103.158H65.5393V105.633H59.3397V110.518H56.5576V97.9441Z" fill="#979797"/>
<path d="M67.0728 106.027V100.901H69.7453V106.071C69.7453 107.408 69.7672 108.349 71.6731 108.349C73.5571 108.349 73.6009 107.408 73.6009 106.049V100.879H76.2077V106.027C76.2077 109.313 75.3315 110.672 71.6512 110.672C67.9928 110.672 67.0728 109.335 67.0728 106.027Z" fill="#979797"/>
<path d="M77.4126 101.055L79.4937 100.902L79.7566 101.953C80.1728 101.34 81.3339 100.858 82.8235 100.792V103.333C80.5672 103.355 80.0852 104.231 80.0852 105.743V110.497H77.4126V101.055Z" fill="#979797"/>
<path d="M83.4805 100.901H85.1892L85.6492 98.5573L87.7303 98.1411V100.901H90.0086V103.18H87.7303V107.145C87.7303 107.889 87.8399 108.306 88.979 108.306H90.0086V110.518C89.6143 110.562 88.9133 110.562 88.4313 110.562C85.8245 110.562 85.0796 109.686 85.0796 107.539V103.18H83.5024V100.901H83.4805Z" fill="#979797"/>
<path d="M91.1919 97.3523H93.8426V101.558C94.2369 101.142 95.157 100.682 96.9752 100.682C99.8669 100.682 100.415 102.303 100.415 104.691V110.518H97.7638V105.217C97.7638 104.034 97.6324 103.201 96.0113 103.201C94.1712 103.201 93.8645 104.056 93.8645 105.348V110.518H91.1919V97.3523Z" fill="#979797"/>
<path d="M101.554 105.699C101.554 103.026 102.43 100.682 106.548 100.682C110.776 100.682 110.908 103.508 110.82 106.706H104.139C104.292 107.867 104.862 108.547 106.57 108.547C108.038 108.547 108.87 108.196 109.593 107.67L110.93 109.401C109.681 110.343 108.476 110.715 106.57 110.715C102.408 110.693 101.554 108.437 101.554 105.699ZM104.139 104.822H108.389C108.323 103.727 108.104 102.917 106.461 102.917C104.818 102.917 104.27 103.64 104.139 104.822Z" fill="#979797"/>
<path d="M112.091 101.055L114.172 100.902L114.435 101.953C114.851 101.34 116.012 100.858 117.501 100.792V103.333C115.245 103.355 114.763 104.231 114.763 105.743V110.497H112.091V101.055Z" fill="#979797"/>
<path d="M72.5712 32.6187C34.6511 32.6187 4.26685 43.9881 4.26685 58.2273C4.26685 72.3789 34.914 83.8359 72.5712 83.8359C110.228 83.8359 140.876 72.335 140.876 58.2273C140.876 44.1195 110.228 32.6187 72.5712 32.6187Z" fill="#979797"/>
<path d="M112.704 50.8886C112.791 50.7353 112.704 50.6257 112.506 50.6257C111.477 50.6257 110.119 50.6257 109.067 50.6257C108.804 50.6257 108.673 50.6476 108.563 50.8886C108.169 51.6553 103.349 58.8845 102.451 60.2865C102.298 60.5056 102.123 60.4617 102.101 60.2208C102.013 59.3883 101.29 58.4244 100.151 57.9644C99.2968 57.6139 98.4424 57.5482 97.5662 57.6577C95.9889 57.8768 94.565 58.7092 93.3163 59.6512C91.4324 61.0751 89.8332 62.9153 87.7302 64.2954C86.5911 65.0402 85.0357 65.6755 83.9842 64.7116C83.0422 63.8353 83.1517 61.8857 84.5976 60.3741C84.7509 60.2208 84.9262 60.3522 84.9043 60.4836C84.7728 61.1627 84.9481 61.8418 85.4519 62.3019C86.0872 62.8714 86.9854 62.9372 87.7521 62.5648C88.6722 62.1047 89.1979 61.2504 89.3513 60.2427C89.5922 58.7092 88.4093 57.351 86.9416 57.2415C85.7367 57.1539 84.5976 57.5701 83.4584 58.5121C82.8889 58.9721 82.5822 59.3226 82.0783 60.0236C81.9688 60.1989 81.7716 60.2208 81.7935 59.9579C81.8593 57.9863 81.0268 56.891 79.4057 56.8472C78.1571 56.8253 76.7989 57.5044 75.7474 58.3368C74.5863 59.2569 73.6005 60.4836 72.5052 61.6447C72.3738 61.7761 72.2642 61.7761 72.2204 61.5132C72.1766 60.2208 71.8699 58.9502 71.2565 58.052C71.0375 57.7453 70.5993 57.592 70.2269 57.7891C70.0517 57.8768 69.4383 58.1616 69.0002 58.5121C68.7811 58.6873 68.6935 58.9502 68.7811 59.2788C69.3726 61.2285 69.2411 63.441 68.4525 65.3031C67.7296 67.0118 66.3276 68.5671 64.6627 69.071C63.5674 69.4215 62.4282 69.2462 61.7272 68.2823C60.7633 66.9461 61.1577 64.624 62.5816 62.6962C63.8522 61.0094 65.6923 59.9141 67.5105 59.235C67.7296 59.1473 67.7734 59.0159 67.7077 58.8407C67.6201 58.534 67.4448 58.1396 67.3791 57.9425C67.2038 57.5044 66.7438 57.4167 66.1742 57.4825C64.8379 57.6358 63.655 58.0958 62.472 58.7311C59.3832 60.396 57.8279 63.5944 57.1269 65.325C56.7983 66.1574 56.5135 66.6613 56.163 67.1213C55.681 67.7347 55.0677 68.3043 53.9285 69.2681C53.819 69.3558 53.7533 69.5529 53.8409 69.7282C53.9504 69.9691 54.5419 70.7797 54.6953 70.8673C54.8705 70.9549 55.0896 70.8235 55.1772 70.7797C55.9658 70.2539 56.9078 69.3996 57.3678 68.83C57.5212 68.6328 57.6964 68.7205 57.7841 69.0053C58.2222 70.5387 59.3394 71.7874 60.8948 72.3131C63.7426 73.277 66.7 71.875 68.9125 69.4653C70.3365 67.9318 70.8403 66.946 71.388 66.2669C72.308 65.1278 74.1263 62.5867 76.2731 60.9437C77.0617 60.3303 78.0037 59.8703 78.4638 60.177C78.8362 60.4179 78.9676 60.9875 78.3542 62.1047C76.1636 66.1136 72.9214 70.8454 72.33 71.9845C72.2204 72.1817 72.308 72.335 72.5271 72.335C73.6882 72.335 74.8273 72.335 75.8569 72.335C76.0321 72.335 76.1198 72.2474 76.2074 72.116C77.8942 69.4653 79.4934 66.946 81.1802 64.3611C81.2678 64.2077 81.3554 64.3173 81.3554 64.383C81.3992 64.9964 81.5307 65.8069 81.9031 66.3546C82.5384 67.3623 83.4584 67.7785 84.4661 67.8004C85.2767 67.8004 85.671 67.6909 86.5472 67.3623C87.2482 67.0994 87.8178 66.7489 88.2559 66.4422C88.5188 66.2669 88.5626 66.5517 88.5407 66.5955C88.1464 68.6986 88.6284 71.174 90.7095 72.2255C93.2068 73.4523 95.9451 71.7217 97.5224 70.1663C97.6757 70.013 97.851 70.0349 97.851 70.3635C97.8948 70.9549 98.1577 71.6778 98.6396 72.1598C99.954 73.4961 102.627 72.9703 105.299 70.8892C107.008 69.5529 108.826 67.6909 110.447 65.6974C110.513 65.6317 110.557 65.5002 110.447 65.3688C110.206 65.1059 109.834 64.8211 109.593 64.5801C109.483 64.4925 109.33 64.5144 109.22 64.5801C107.556 66.1574 106.044 67.9757 103.897 69.4653C103.174 69.9691 101.991 70.3854 101.487 69.6844C101.29 69.4215 101.312 69.0272 101.509 68.5233C102.167 67.0118 112.178 51.7868 112.704 50.8886ZM99.4721 63.6601C99.494 63.7696 99.6473 63.8791 99.8006 63.9449C99.8445 63.9668 99.8883 64.0106 99.8226 64.1201C99.4063 65.0402 99.012 65.5659 98.4644 66.3546C97.9824 67.0775 97.4128 67.6471 96.7557 68.2166C95.748 69.0491 94.3459 69.9472 93.1849 69.3558C92.681 69.0929 92.4401 68.37 92.462 67.7785C92.4839 66.1355 93.2068 64.4487 94.565 62.8057C96.208 60.7903 98.0262 59.7388 99.2092 60.3084C100.436 60.8999 100.042 62.3238 99.494 63.441C99.4501 63.5067 99.4501 63.5944 99.4721 63.6601Z" fill="white"/>
<path d="M40.1277 72.335C36.4036 72.3569 33.1176 70.0567 32.7233 66.0698C32.5042 63.8572 33.1395 61.8856 34.3882 60.2645C35.5054 58.8187 37.3675 57.6139 38.9667 57.3291C39.4924 57.2415 40.1715 57.2853 40.4563 57.6358C40.9163 58.1615 40.7849 58.7311 40.3249 58.9721C39.12 59.5854 37.6523 60.6589 36.9294 62.1047C36.3379 63.2876 36.2283 64.7116 37.1265 66.0698C38.6161 68.3261 42.8003 68.3918 46.6777 64.7773C47.6416 63.901 48.496 63.0467 49.3722 62.039C51.0809 60.0893 51.6505 59.3664 53.9288 56.2119C53.9507 56.168 53.9726 56.1242 53.9507 56.1023C53.9288 56.0585 53.9069 56.0585 53.8411 56.0585C52.3296 56.1023 50.9933 56.5404 49.7227 57.5043C49.3503 57.7672 48.8246 57.7453 48.5836 57.3729C48.3207 56.9786 48.5179 56.4528 48.9341 56.1461C50.9933 54.7003 53.2716 54.4374 55.5718 54.065C55.5718 54.065 55.7251 54.065 55.8565 53.8898C56.7985 52.6849 57.5214 51.5677 58.5291 50.3409C59.5368 49.0923 60.8512 47.9531 61.8589 47.0769C63.2609 45.872 64.1591 45.4558 65.0792 44.9738C65.3201 44.8424 65.0572 44.6891 64.9696 44.6891C59.8654 43.7252 54.5641 42.4984 49.5037 44.3605C45.9986 45.6748 44.4652 48.457 45.1881 50.319C45.7138 51.6334 47.4445 51.8525 49.0655 51.0638C50.4018 50.4066 51.6505 49.3332 52.5487 47.975C53.0525 47.2083 54.0821 47.756 53.5345 49.0923C52.0448 52.5754 49.2189 55.3356 45.7796 55.4451C42.8441 55.5328 40.9601 53.3859 40.9601 50.7133C40.982 45.4558 46.8311 41.9946 52.9649 41.4907C60.3693 40.8773 67.3793 42.8489 74.7399 43.7471C80.3699 44.4262 85.7808 44.4481 91.4326 43.1337C92.1117 42.9804 92.5718 43.4185 92.5279 44.0976C92.4622 45.0834 91.7174 46.0253 89.8554 47.033C87.7304 48.1941 85.5179 48.5446 83.1958 48.5665C77.5877 48.6103 72.374 46.4197 66.9631 45.2586C66.9631 45.4996 67.0288 45.7844 66.8317 45.9158C63.8524 48.1284 61.136 50.3628 59.3178 53.5174C59.252 53.5831 59.2959 53.6488 59.4054 53.6488C60.9827 53.5612 62.3847 53.5174 63.8524 53.4078C64.1153 53.3859 64.1153 53.3202 64.0934 53.1449C63.9619 52.0715 64.2686 50.8229 65.2325 49.9685C66.2183 49.0923 67.4231 48.9827 68.2337 49.618C69.1538 50.3409 69.0661 51.6334 68.5623 52.5973C68.0584 53.5831 67.2041 54.1088 66.3935 54.3498C66.3935 54.3498 66.2183 54.3936 66.2402 54.547C66.284 54.7879 67.3793 55.4013 67.467 55.5766C67.5546 55.7299 67.5108 55.9709 67.3355 56.1461C67.226 56.2776 67.0288 56.409 66.8098 56.409C66.6126 56.409 66.5031 56.3433 66.2621 56.2119C65.7583 55.949 65.1449 55.4889 64.7286 54.9851C64.5753 54.8098 64.5096 54.8098 64.1591 54.8317C62.5599 54.9194 60.0845 55.1603 58.4196 55.3794C58.0034 55.4232 57.9596 55.5108 57.8719 55.6423C55.1993 60.0455 52.3296 64.8211 49.197 67.9975C45.8891 71.4149 43.107 72.3131 40.1277 72.335ZM65.6268 52.7287C65.6706 52.9478 65.7583 52.9916 65.8678 52.9697C66.3716 52.8602 66.9412 52.4439 67.2698 51.962C67.5765 51.5239 67.7079 50.8886 67.4231 50.6257C67.1603 50.4066 66.7221 50.4505 66.3935 50.7352C65.7363 51.3267 65.5392 52.1153 65.6268 52.7287Z" fill="white"/>
<path d="M72.5713 81.6236C36.4256 81.6236 7.11475 71.1523 7.11475 58.2494C7.11475 45.3465 36.4256 34.8752 72.5713 34.8752C108.717 34.8752 138.028 45.3465 138.028 58.2494C138.028 71.1523 108.717 81.6236 72.5713 81.6236ZM72.5713 36.803C37.6962 36.803 9.41493 46.4419 9.41493 58.2275C9.41493 70.0132 37.6962 79.6521 72.5713 79.6521C107.446 79.6521 135.728 70.0132 135.728 58.2275C135.728 46.4419 107.446 36.803 72.5713 36.803Z" fill="white"/>
</svg>
