<svg width="156" height="26" viewBox="0 0 156 26" fill="none" xmlns="http://www.w3.org/2000/svg">
<path fillRule="evenodd" clipRule="evenodd" d="M153.79 1.35274V5.97322C151.394 5.06956 149.262 4.61266 147.395 4.61266C146.29 4.61266 145.409 4.81725 144.747 5.2128C144.085 5.61176 143.747 6.10282 143.747 6.68251C143.747 7.45316 144.495 8.13851 145.999 8.75236L150.347 10.8665C153.861 12.5408 155.605 14.7641 155.605 17.5569C155.605 19.879 154.68 21.7307 152.814 23.1014C150.961 24.486 148.467 25.1713 145.361 25.1713C143.928 25.1713 142.642 25.1099 141.499 24.9803C140.356 24.8576 139.042 24.6053 137.585 24.2438V19.4085C140.257 20.3122 142.69 20.7691 144.88 20.7691C147.494 20.7691 148.794 20.0121 148.794 18.4844C148.794 17.724 148.262 17.1102 147.18 16.6293L142.352 14.5731C140.571 13.7684 139.247 12.7932 138.38 11.6372C137.527 10.471 137.094 9.13429 137.094 7.60663C137.094 5.46852 137.994 3.74649 139.776 2.43706C141.57 1.13785 143.952 0.486572 146.914 0.486572C147.876 0.486572 148.985 0.571792 150.214 0.728664C151.452 0.895762 152.643 1.10035 153.79 1.35274Z" fill="#979797"/>
<path fillRule="evenodd" clipRule="evenodd" d="M17.0406 1.35274V5.97322C14.6452 5.06956 12.516 4.61266 10.6494 4.61266C9.54046 4.61266 8.66356 4.81725 8.00154 5.2128C7.33961 5.61176 7.00178 6.10282 7.00178 6.68251C7.00178 7.45316 7.7593 8.13851 9.2641 8.75236L13.6113 10.8665C17.1122 12.5408 18.8594 14.7641 18.8594 17.5569C18.8594 19.879 17.9312 21.7307 16.0784 23.1014C14.2118 24.486 11.7311 25.1713 8.61581 25.1713C7.18263 25.1713 5.89279 25.1099 4.74969 24.9803C3.60659 24.8576 2.30652 24.6053 0.839309 24.2438V19.4085C3.52132 20.3122 5.95426 20.7691 8.13123 20.7691C10.745 20.7691 12.0451 20.0121 12.0451 18.4844C12.0451 17.724 11.5162 17.1102 10.4447 16.6293L5.61643 14.5731C3.82155 13.7684 2.4976 12.7932 1.64458 11.6372C0.777836 10.471 0.354736 9.13429 0.354736 7.60663C0.354736 5.46852 1.24877 3.74649 3.04016 2.43706C4.82139 1.13785 7.20651 0.486572 10.1684 0.486572C11.1408 0.486572 12.2362 0.571792 13.4782 0.728664C14.7067 0.895762 15.8975 1.10035 17.0406 1.35274Z" fill="#979797"/>
<path fillRule="evenodd" clipRule="evenodd" d="M29.1029 0.919434V24.7381H22.0225V0.919434H29.1029Z" fill="#979797"/>
<path fillRule="evenodd" clipRule="evenodd" d="M52.1287 24.7381H34.5796V0.919434H51.9137V5.32176H41.3938V10.6037H50.5182V14.5729H41.3938V20.1176H52.1287V24.7381Z" fill="#979797"/>
<path fillRule="evenodd" clipRule="evenodd" d="M56.0427 24.7381V0.919434H64.6859L70.5856 15.5005L76.7584 0.919434H84.9682V24.7381H78.3583V9.02835L71.5001 24.9563H67.4191L60.8233 9.02835V24.7381H56.0427Z" fill="#979797"/>
<path fillRule="evenodd" clipRule="evenodd" d="M107.984 24.7381H90.4348V0.919434H107.769V5.32176H97.3064V10.6037H106.431V14.5729H97.3064V20.1176H107.984V24.7381Z" fill="#979797"/>
<path fillRule="evenodd" clipRule="evenodd" d="M132.613 24.7381H125.103L116.675 9.4614V24.7381H111.897V0.919434H119.627L127.836 15.9336V0.919434H132.613V24.7381Z" fill="#979797"/>
</svg>
