<svg width="101" height="103" viewBox="0 0 101 103" fill="none" xmlns="http://www.w3.org/2000/svg">
<rect width="99.518" height="102.227" transform="translate(0.698242 0.636719)" fill="white"/>
<path d="M51.4306 4.323C26.5233 4.323 6.33447 24.5032 6.33447 49.3959C6.33447 54.1088 7.05763 58.6497 8.39925 62.9197L10.4803 60.7911C9.47169 57.1633 8.93336 53.3428 8.93336 49.3959C8.93336 25.9376 27.9599 6.92035 51.4306 6.92035C74.9028 6.92035 93.9312 25.9376 93.9312 49.3959C93.9312 60.784 89.4448 71.1243 82.145 78.7513L84.1447 80.4177C91.8201 72.337 96.5301 61.4166 96.5301 49.3959C96.5301 24.5032 76.338 4.323 51.4306 4.323ZM13.8576 69.169L12.5093 72.0984C15.5007 77.2444 19.4896 81.7395 24.2108 85.326V82.0028C19.9726 78.4562 16.4417 74.1005 13.8576 69.169Z" fill="#979797"/>
<path fill-rule="evenodd" clip-rule="evenodd" d="M72.4775 81.9613L77.1904 77.4134L81.5785 81.9613H75.7277V86.6714H81.9033V90.0819H75.7277V94.9543H81.5785L77.1904 99.1775L72.4775 94.3052V81.9613ZM59.8016 81.9613L64.6769 77.4134L69.2274 81.9613V94.3052L66.1396 97.7157L62.7271 94.1429H66.302V82.2858H62.5633V99.1775H59.8016V81.9613ZM46.7996 82.1235L51.5125 77.4134L56.2254 81.9613V94.6297L51.3501 99.1775L46.7996 94.6297V82.1235ZM16.8808 82.8084C18.7027 84.02 27.6344 90.6567 18.6848 99.0153H4.38379L10.2346 93.9806C10.2346 93.9806 13.0789 94.9543 15.6782 92.2754C15.6782 92.2754 17.5468 88.7012 15.1099 86.8336C15.1099 86.8336 13.1587 84.559 9.4214 82.6104C9.4214 82.6104 4.05905 80.1749 6.33361 72.5397C6.33361 72.5397 7.95869 60.8463 22.5858 54.5107L23.4444 54.2012C23.8848 54.1861 12.6716 61.6576 10.2346 72.0529C10.2346 72.0529 9.50259 74.4086 10.2346 77.6569C10.2346 77.6569 10.2346 79.8489 13.0789 81.3108C13.0789 81.3108 15.597 82.367 16.4102 82.5292L16.8808 82.8084ZM27.2973 99.1775H30.5488V10.8202L27.2973 13.7425V99.1775ZM32.9858 10.6483V99.1775H36.3983L36.4052 62.7949V61.3331L40.2993 99.1775H43.3871V7.08374H40.2993C40.2993 7.08374 40.2181 48.3387 40.2993 48.3387L35.9112 8.87014L32.9858 10.6483ZM49.5627 82.4481H53.2999V94.3052H49.5627V82.4481ZM85.3158 81.7976L89.7039 77.4134L94.5792 82.4481V86.5091H91.8161V82.1235H87.9165V94.1429H91.6538V90.4064H94.5792V94.4674L89.8663 99.1775L85.3158 94.6297V81.7976Z" fill="#979797"/>
<path fill-rule="evenodd" clip-rule="evenodd" d="M49.8874 46.7146L49.725 45.0904V43.9532L49.6438 43.1418L50.0498 42.655L50.7006 42.4927V46.7146C50.7006 46.7146 51.9184 46.39 52.9752 46.4712L54.032 46.7957L54.2755 47.2839L54.1131 47.7707L53.626 48.0953L52.894 48.4198C52.894 48.4198 51.1877 48.9892 52.2431 50.7756L51.9184 51.1813L51.3501 51.2624L50.6194 51.1813C50.6194 51.1813 50.1309 51.1001 50.1309 51.8317V58.0037L50.0498 58.7339V59.4655L49.725 59.8712L49.4815 59.4655L49.3191 58.8962V53.0502C49.3191 53.0502 49.6438 51.7506 48.6696 51.9129C48.6696 51.9129 48.2623 51.4247 48.8306 51.1813C48.8306 51.1813 49.5626 50.7756 49.8062 50.2076C49.8062 50.2076 49.8874 50.044 49.8062 49.3137C49.8062 49.3137 49.9686 48.0953 48.587 48.9892C48.587 48.9892 46.962 49.9628 46.6372 51.6695C46.6372 51.6695 45.9066 52.0751 45.9877 50.1265C45.9877 50.1265 46.2313 48.8269 46.7184 48.0141C46.7184 48.0141 47.6128 47.0405 47.5316 48.2576C47.5316 48.2576 47.6128 48.9892 48.3435 48.3387C48.3435 48.3387 49.2379 47.4462 49.725 47.2028L49.8874 46.7146ZM50.2121 48.7458C50.2121 48.7458 50.2121 48.0953 51.1065 48.0953C51.1065 48.0953 51.5936 48.5835 50.863 49.0703L50.3759 49.2326L50.2121 48.7458ZM56.795 46.4712C56.795 46.4712 58.9072 45.415 59.8016 45.0093C59.8016 45.0093 60.857 44.7659 61.9138 45.0904C61.9138 45.0904 62.9706 45.1716 63.133 46.8768C63.133 46.8768 63.4577 50.1265 63.5389 51.1813C63.5389 51.1813 63.7012 51.8317 63.3765 52.6431C63.3765 52.6431 63.2953 53.6993 62.9706 54.2672L62.4821 55.3234C62.4821 55.3234 62.1574 56.2984 61.4267 55.8914C61.4267 55.8914 60.7758 55.4045 61.5891 54.5106C61.5891 54.5106 62.4821 53.9427 62.4009 52.8865C62.4009 52.8865 62.3197 49.8005 62.1574 49.476L61.7514 47.2028C61.7514 47.2028 61.8326 45.4961 59.964 45.9032L58.5013 46.4712L57.7692 46.7957L57.2821 47.0405L56.795 46.958V46.4712ZM55.2511 48.7458L54.9264 49.7194V51.5058C54.9264 51.5058 55.1699 52.562 54.3567 52.8054L54.2755 53.4559V54.105L54.6003 54.5932L55.0874 54.2672L55.4947 53.8615L55.5758 53.1299V49.6383L55.7382 49.1514L55.657 48.7458H55.2511ZM57.2009 48.6646L58.4187 48.5835C58.4187 48.5835 58.5825 47.7707 58.2563 47.2839C58.2563 47.2839 59.3131 47.6085 59.5567 48.501V49.6383C59.5567 49.6383 59.2319 50.451 60.2887 50.044C60.2887 50.044 61.5891 48.6646 60.857 50.1265C60.857 50.1265 60.2887 50.6133 59.8828 51.1001C59.8828 51.1001 59.6379 51.7506 60.2887 52.2374L60.4511 53.2124L60.7758 53.6181L60.6946 54.0238L60.2887 54.1861L60.3699 54.5932L61.0194 54.8366L60.2887 54.9988L60.0452 55.3234L58.9072 55.4045L58.0953 55.1611L57.3633 55.08L56.7138 54.9988L56.8762 54.6743C56.8762 54.6743 58.9072 53.6181 59.2319 52.562C59.2319 52.562 59.5567 51.1001 58.7448 50.3699C58.7448 50.3699 58.0953 51.2624 57.5257 51.9129C57.5257 51.9129 58.3389 52.0751 58.7448 51.994C58.7448 51.994 58.0142 52.7242 56.9574 53.2936C56.9574 53.2936 55.9006 53.6181 56.3065 52.7242C56.3065 52.7242 57.2009 52.0751 57.2821 51.2624L57.0386 50.9378L56.9574 50.2076L57.3633 50.044L57.2821 49.6383L56.6326 49.7194V49.3949L56.795 48.908L57.2009 48.6646ZM59.8016 47.4462L60.2075 47.933L60.7758 47.8519L60.6946 47.365L60.3699 47.0405L59.964 46.7957L59.6379 46.8768L59.8016 47.4462ZM67.8458 46.5523C67.8458 46.5523 69.2273 45.8221 72.6399 45.415L73.2082 45.3339L72.6399 45.9843L72.1528 46.5523L71.5831 46.958L70.6901 47.2028L69.7145 47.365L68.7389 47.0405L68.1706 46.6334L67.8458 46.5523ZM69.1462 48.0141L68.4953 48.4198L68.0082 48.8269L67.7646 49.3137L67.6834 50.3699L67.3587 51.3435L67.034 52.3997L66.6267 53.3747L66.3019 54.105L65.896 54.9988L65.5699 55.5668L65.164 56.2984L64.5957 57.1909L64.1086 57.8414L63.7013 58.5716L63.2953 59.141L62.8082 59.7901L62.3197 60.358L61.8326 61.0085L61.4267 61.5765L61.1019 62.2269L62.0762 61.4953L62.727 60.8462L63.2141 60.1958L63.5389 59.7089L63.9448 59.141L64.3521 58.4094L64.758 57.9225L65.0828 57.2721L65.4887 56.5418L65.8134 55.8914L66.1396 55.4045L66.3831 54.9177L66.6267 54.5106L66.789 54.1861L67.034 53.8615L67.4399 54.2672L67.8458 54.5932C67.8458 54.5932 69.065 54.8366 69.1462 53.8615V53.3747L68.82 53.1299C68.82 53.1299 68.9012 51.9129 69.7956 52.0751L70.6901 52.2374C70.6901 52.2374 72.0716 51.9129 71.5831 53.1299L71.0148 53.7804C71.0148 53.7804 70.4451 54.8366 72.0716 54.1861L73.127 53.8615L73.7778 53.537L73.127 53.3747C73.127 53.3747 72.2339 53.2936 72.8022 52.0751L73.2894 51.4247L73.7778 50.9378C73.7778 50.9378 74.3461 49.8005 72.9646 50.3699L72.3151 50.6944C72.3151 50.6944 71.3395 51.6695 70.2841 51.4247L69.4709 51.3435L68.9012 51.4247C68.9012 51.4247 67.927 51.2624 68.4141 50.1265L68.7389 49.6383L68.9012 49.0703L68.9838 48.6646L69.3085 48.4198L69.1462 48.0141ZM79.4649 46.0655L79.059 46.39L78.7343 46.7957L78.2458 47.7707L77.921 48.1764L77.5151 48.5835L77.1904 49.0703L76.7033 49.476L76.3771 49.8817L76.0524 50.2076H75.5653L75.2406 50.451L75.1594 50.8567L75.7277 50.9378L76.296 50.8567C76.296 50.8567 77.1904 50.6944 77.4339 49.9628C77.4339 49.9628 78.0022 49.3949 78.0834 50.1265V51.6695C78.0834 51.6695 78.3283 52.3997 77.5963 52.8865L77.028 53.4559L76.6221 53.8615H77.5963C77.5963 53.8615 78.8155 53.6993 79.059 52.1563V50.8567L78.9778 50.2887C78.9778 50.2887 79.059 49.476 78.4907 49.2326C78.4907 49.2326 77.8399 48.9892 78.4907 48.3387L78.7343 47.7707L79.059 47.2028L79.4649 46.7957L80.0346 46.4712L80.4405 46.2277L80.2782 45.9032L79.8722 45.9843L79.4649 46.0655ZM82.228 48.0141C82.228 48.0141 82.6339 49.2326 81.0088 49.5571L80.6029 49.6383V50.044H81.1712L81.4973 50.1265L81.5785 51.1813V52.2374C81.5785 52.2374 81.5785 54.1861 83.6095 54.105L85.2346 54.0238H86.0478C86.0478 54.0238 87.5092 53.9427 89.0544 52.562L90.1112 51.7506L90.6781 51.019C90.6781 51.019 91.7349 50.2887 91.0854 49.2326L90.7607 48.501L90.8419 47.1216L90.6781 46.1466L90.4346 45.7409L90.2722 46.2277L90.1112 46.8768V48.3387L90.0286 49.2326L90.1112 49.8817V50.5322L89.9475 50.9378L89.6227 51.4247L89.1356 51.9129L88.4847 52.3186L87.8353 52.8054L87.3482 53.0502L86.6973 53.2936L85.9666 53.3747H85.1534L84.5039 53.2124C84.5039 53.2124 82.7151 52.7242 82.5541 51.2624V49.7194L83.0412 49.2326L83.9343 48.501L84.9098 47.7707L85.5593 47.2839L86.129 46.8768L86.5349 46.4712L86.2102 46.0655L85.6405 46.1466L85.2346 46.3089L84.9098 46.7146L84.3402 47.2028C84.3402 47.2028 83.4471 47.8519 83.1224 47.2839L83.0412 46.7146L82.6339 47.0405L82.3092 47.365L82.228 48.0141Z" fill="#979797"/>
</svg>
